<svg fill="none" class="icon icon-cart" viewBox="0 0 18 16" xmlns="http://www.w3.org/2000/svg">
<path fill-rule="evenodd" clip-rule="evenodd" d="M5.70554 3.99936H2.41146C2.18451 3.99936 2 4.19854 2 4.44355V12.8882C2 13.0065 2.04323 13.119 2.12043 13.2032L4.59079 15.87C4.66799 15.9525 4.77298 16 4.88261 16H13.1174C13.227 16 13.3312 15.9525 13.4092 15.87L15.8796 13.2032C15.956 13.1198 16 13.0065 16 12.8882V4.44355C16 4.19854 15.8155 3.99936 15.5885 3.99936H12.2945V2.10093C12.2945 1.5434 12.0891 1.00921 11.7247 0.61503C11.3588 0.220833 10.864 0 10.3475 0H7.65324C7.13677 0 6.64193 0.221687 6.276 0.61503C5.91161 1.01006 5.70628 1.54425 5.70628 2.10093V3.99936H5.70554ZM11.47 3.99936V2.10093C11.47 1.77925 11.3511 1.47091 11.1403 1.24423C10.9303 1.01672 10.6447 0.888368 10.3467 0.888368H7.65245C7.35447 0.888368 7.06884 1.01671 6.85886 1.24423C6.64811 1.47091 6.52921 1.77925 6.52921 2.10093V3.99936H11.47Z" fill="black"/>
</svg>
