<svg viewBox="0 0 18 19" fill="currentColor" xmlns="http://www.w3.org/2000/svg">
<path d="M16.9958 16.6273L16.1918 7.27725C16.1353 6.61723 15.7484 6 15.0083 6H14L14 5H12.8004L12.8004 4.4C12.8004 2.52533 11.0955 1 9.00001 1C6.90455 1 5.19959 2.52533 5.19959 4.4L5.19959 5H4V6.1H3.22908C2.48895 6.1 1.86473 6.61723 1.8082 7.27725L1.00417 16.6273C0.973769 16.9802 1.11058 17.3315 1.37946 17.5914C1.64834 17.8513 2.02933 18 2.42505 18H15.5747C15.9704 18 16.3517 17.851 16.6203 17.5914C16.889 17.3317 17.0262 16.9802 16.9958 16.6273ZM6.1497 4.4C6.1497 2.99389 7.4283 1.85 9.00001 1.85C10.5717 1.85 11.8503 2.99389 11.8503 4.4L11.8503 5H9L9.00001 6.1H7.66016L7.5 6V5H6.1497L6.1497 4.4ZM15.9234 17.0138C15.8327 17.1016 15.7087 17.15 15.575 17.15H2.42505C2.29133 17.15 2.16734 17.1016 2.07636 17.0138C1.98539 16.926 1.94097 16.8119 1.95143 16.6925L2.75545 7.34249C2.77445 7.12234 2.98253 6.95 3.22908 6.95H5.19959V9.075C5.19959 9.3096 5.41242 9.5 5.67464 9.5C5.93687 9.5 6.1497 9.3096 6.1497 9.075V6.95H11.8503V9.075C11.8503 9.3096 12.0631 9.5 12.3254 9.5C12.5876 9.5 12.8004 9.3096 12.8004 9.075V6.95H14.7709C15.0177 6.95 15.2258 7.12234 15.2446 7.34249L16.0486 16.6925C16.0588 16.8119 16.0144 16.9258 15.9234 17.0138Z" fill="currentColor"/>
</svg>
