<svg xmlns="http://www.w3.org/2000/svg" class="icon icon-cart" viewBox="0 0 18 19">
<path fill-rule="evenodd" d="M5.2349 4.74924H1.47024C1.21086 4.74924 1 4.98576 1 5.27671V15.3047C1 15.4452 1.04941 15.5788 1.13764 15.6788L3.9609 18.8456C4.04913 18.9436 4.16912 19 4.29441 19H13.7056C13.8309 19 13.95 18.9436 14.0391 18.8456L16.8624 15.6788C16.9497 15.5798 17 15.4452 17 15.3047V5.27671C17 4.98577 16.7891 4.74924 16.5298 4.74924H12.7651V2.49486C12.7651 1.83279 12.5304 1.19843 12.114 0.730349C11.6958 0.262239 11.1303 0 10.54 0H7.46084C6.8706 0 6.30506 0.263253 5.88686 0.730349C5.47042 1.19945 5.23575 1.8338 5.23575 2.49486V4.74924H5.2349ZM11.8228 4.74924V2.49486C11.8228 2.11286 11.6869 1.7467 11.4461 1.47752C11.2061 1.20735 10.8797 1.05494 10.5391 1.05494H7.45995C7.11939 1.05494 6.79296 1.20734 6.55298 1.47752C6.31212 1.7467 6.17624 2.11286 6.17624 2.49486V4.74924H11.8228Z" fill="black"/>
<rect x="4" y="4" width="3" height="3"/>
<rect x="8" y="3" width="7" height="4"/>
</svg>
